<?xml version="1.0" encoding="UTF-8"?>
<svg id="Camada_1" data-name="Camada 1" xmlns="http://www.w3.org/2000/svg" viewBox="0 0 104.35 102.93">
  <defs>
    <style>
      .cls-1 {
        fill: #d5d3ff;
      }

      .cls-2 {
        fill: #343434;
      }
    </style>
  </defs>
  <path class="cls-2" d="M76.35,2.4h24.11c.82,0,1.48,.66,1.48,1.48V27.99c0,.82-.66,1.48-1.48,1.48h-24.11c-.81,0-1.48-.66-1.48-1.48V3.88c0-.81,.66-1.48,1.48-1.48Z"/>
  <rect class="cls-2" x="2.4" y="2.57" width="63.08" height="26.9" rx="1.48" ry="1.48"/>
  <path class="cls-1" d="M59.79,9.85H8.1c-.66,0-1.2-.54-1.2-1.2s.54-1.2,1.2-1.2H59.79c.66,0,1.2,.54,1.2,1.2s-.54,1.2-1.2,1.2Z"/>
  <path class="cls-1" d="M59.79,17.22H8.1c-.66,0-1.2-.54-1.2-1.2s.54-1.2,1.2-1.2H59.79c.66,0,1.2,.54,1.2,1.2s-.54,1.2-1.2,1.2Z"/>
  <path class="cls-1" d="M59.79,24.59H8.1c-.66,0-1.2-.54-1.2-1.2s.54-1.2,1.2-1.2H59.79c.66,0,1.2,.54,1.2,1.2s-.54,1.2-1.2,1.2Z"/>
  <path class="cls-1" d="M100.46,67.4h-24.11c-2.14,0-3.88-1.74-3.88-3.88v-24.11c0-2.14,1.74-3.88,3.88-3.88h24.11c2.14,0,3.88,1.74,3.88,3.88v24.11c0,2.14-1.74,3.88-3.88,3.88Zm-24.11-29.47c-.81,0-1.48,.66-1.48,1.48v24.11c0,.81,.66,1.48,1.48,1.48h24.11c.81,0,1.48-.66,1.48-1.48v-24.11c0-.81-.66-1.48-1.48-1.48h-24.11Z"/>
  <path class="cls-1" d="M64.01,67.4H3.88c-2.14,0-3.88-1.74-3.88-3.88v-23.95c0-2.14,1.74-3.88,3.88-3.88h60.13c2.14,0,3.88,1.74,3.88,3.88v23.95c0,2.14-1.74,3.88-3.88,3.88ZM3.88,38.1c-.81,0-1.48,.66-1.48,1.48v23.95c0,.81,.66,1.48,1.48,1.48h60.13c.81,0,1.48-.66,1.48-1.48v-23.95c0-.81-.66-1.48-1.48-1.48H3.88Z"/>
  <path class="cls-1" d="M59.79,45.38H8.1c-.66,0-1.2-.54-1.2-1.2s.54-1.2,1.2-1.2H59.79c.66,0,1.2,.54,1.2,1.2s-.54,1.2-1.2,1.2Z"/>
  <path class="cls-1" d="M59.79,52.75H8.1c-.66,0-1.2-.54-1.2-1.2s.54-1.2,1.2-1.2H59.79c.66,0,1.2,.54,1.2,1.2s-.54,1.2-1.2,1.2Z"/>
  <path class="cls-1" d="M59.79,60.12H8.1c-.66,0-1.2-.54-1.2-1.2s.54-1.2,1.2-1.2H59.79c.66,0,1.2,.54,1.2,1.2s-.54,1.2-1.2,1.2Z"/>
  <path class="cls-2" d="M76.35,73.46h24.11c.81,0,1.48,.66,1.48,1.48v24.11c0,.82-.66,1.48-1.48,1.48h-24.11c-.81,0-1.48-.66-1.48-1.48v-24.11c0-.82,.66-1.48,1.48-1.48Z"/>
  <rect class="cls-2" x="2.4" y="73.63" width="63.08" height="26.9" rx="1.48" ry="1.48"/>
  <path class="cls-1" d="M59.79,80.91H8.1c-.66,0-1.2-.54-1.2-1.2s.54-1.2,1.2-1.2H59.79c.66,0,1.2,.54,1.2,1.2s-.54,1.2-1.2,1.2Z"/>
  <path class="cls-1" d="M59.79,88.28H8.1c-.66,0-1.2-.54-1.2-1.2s.54-1.2,1.2-1.2H59.79c.66,0,1.2,.54,1.2,1.2s-.54,1.2-1.2,1.2Z"/>
  <path class="cls-1" d="M59.79,95.65H8.1c-.66,0-1.2-.54-1.2-1.2s.54-1.2,1.2-1.2H59.79c.66,0,1.2,.54,1.2,1.2s-.54,1.2-1.2,1.2Z"/>
  <path class="cls-1" d="M88.41,23.86c-.66,0-1.2-.54-1.2-1.2V9.21c0-.66,.54-1.2,1.2-1.2s1.2,.54,1.2,1.2v13.45c0,.66-.54,1.2-1.2,1.2Z"/>
  <path class="cls-1" d="M85.46,59.39c-.66,0-1.2-.54-1.2-1.2v-13.45c0-.66,.54-1.2,1.2-1.2s1.2,.54,1.2,1.2v13.45c0,.66-.54,1.2-1.2,1.2Z"/>
  <path class="cls-1" d="M91.35,59.39c-.66,0-1.2-.54-1.2-1.2v-13.45c0-.66,.54-1.2,1.2-1.2s1.2,.54,1.2,1.2v13.45c0,.66-.54,1.2-1.2,1.2Z"/>
  <path class="cls-1" d="M82.52,94.92c-.66,0-1.2-.54-1.2-1.2v-13.45c0-.66,.54-1.2,1.2-1.2s1.2,.54,1.2,1.2v13.45c0,.66-.54,1.2-1.2,1.2Z"/>
  <path class="cls-1" d="M88.41,94.92c-.66,0-1.2-.54-1.2-1.2v-13.45c0-.66,.54-1.2,1.2-1.2s1.2,.54,1.2,1.2v13.45c0,.66-.54,1.2-1.2,1.2Z"/>
  <path class="cls-1" d="M94.3,94.92c-.66,0-1.2-.54-1.2-1.2v-13.45c0-.66,.54-1.2,1.2-1.2s1.2,.54,1.2,1.2v13.45c0,.66-.54,1.2-1.2,1.2Z"/>
  <path class="cls-1" d="M100.46,31.87h-24.11c-2.14,0-3.88-1.74-3.88-3.88V3.88c0-2.14,1.74-3.88,3.88-3.88h24.11c2.14,0,3.88,1.74,3.88,3.88V27.99c0,2.14-1.74,3.88-3.88,3.88ZM76.35,2.4c-.81,0-1.48,.66-1.48,1.48V27.99c0,.81,.66,1.48,1.48,1.48h24.11c.81,0,1.48-.66,1.48-1.48V3.88c0-.81-.66-1.48-1.48-1.48h-24.11Z"/>
  <path class="cls-1" d="M64.01,31.87H3.88c-2.14,0-3.88-1.74-3.88-3.88V4.04C0,1.9,1.74,.16,3.88,.16h60.13c2.14,0,3.88,1.74,3.88,3.88V27.99c0,2.14-1.74,3.88-3.88,3.88ZM3.88,2.57c-.81,0-1.48,.66-1.48,1.48V27.99c0,.81,.66,1.48,1.48,1.48h60.13c.81,0,1.48-.66,1.48-1.48V4.04c0-.81-.66-1.48-1.48-1.48H3.88Z"/>
  <path class="cls-1" d="M100.46,102.93h-24.11c-2.14,0-3.88-1.74-3.88-3.88v-24.11c0-2.14,1.74-3.88,3.88-3.88h24.11c2.14,0,3.88,1.74,3.88,3.88v24.11c0,2.14-1.74,3.88-3.88,3.88Zm-24.11-29.47c-.81,0-1.48,.66-1.48,1.48v24.11c0,.81,.66,1.48,1.48,1.48h24.11c.81,0,1.48-.66,1.48-1.48v-24.11c0-.81-.66-1.48-1.48-1.48h-24.11Z"/>
  <path class="cls-1" d="M64.01,102.93H3.88c-2.14,0-3.88-1.74-3.88-3.88v-23.95c0-2.14,1.74-3.88,3.88-3.88h60.13c2.14,0,3.88,1.74,3.88,3.88v23.95c0,2.14-1.74,3.88-3.88,3.88ZM3.88,73.63c-.81,0-1.48,.66-1.48,1.48v23.95c0,.81,.66,1.48,1.48,1.48h60.13c.81,0,1.48-.66,1.48-1.48v-23.95c0-.81-.66-1.48-1.48-1.48H3.88Z"/>
</svg>