<?xml version="1.0" encoding="UTF-8"?>
<svg id="Camada_1" data-name="Camada 1" xmlns="http://www.w3.org/2000/svg" viewBox="0 0 91.32 91.32">
  <defs>
    <style>
      .cls-1 {
        fill: #ffb5ff;
      }

      .cls-2 {
        fill: #343434;
      }
    </style>
  </defs>
  <rect class="cls-2" x="2.4" y="49.9" width="39.02" height="39.02" rx="1.48" ry="1.48"/>
  <path class="cls-1" d="M36.4,57.5H7.43c-.66,0-1.2-.54-1.2-1.2s.54-1.2,1.2-1.2h28.97c.66,0,1.2,.54,1.2,1.2s-.54,1.2-1.2,1.2Z"/>
  <path class="cls-1" d="M36.4,66.05H7.43c-.66,0-1.2-.54-1.2-1.2s.54-1.2,1.2-1.2h28.97c.66,0,1.2,.54,1.2,1.2s-.54,1.2-1.2,1.2Z"/>
  <path class="cls-1" d="M36.4,74.6H7.43c-.66,0-1.2-.54-1.2-1.2s.54-1.2,1.2-1.2h28.97c.66,0,1.2,.54,1.2,1.2s-.54,1.2-1.2,1.2Z"/>
  <path class="cls-1" d="M36.4,83.15H7.43c-.66,0-1.2-.54-1.2-1.2s.54-1.2,1.2-1.2h28.97c.66,0,1.2,.54,1.2,1.2s-.54,1.2-1.2,1.2Z"/>
  <rect class="cls-2" x="49.9" y="2.4" width="39.02" height="39.02" rx="1.48" ry="1.48"/>
  <path class="cls-1" d="M83.9,10h-28.97c-.66,0-1.2-.54-1.2-1.2s.54-1.2,1.2-1.2h28.97c.66,0,1.2,.54,1.2,1.2s-.54,1.2-1.2,1.2Z"/>
  <path class="cls-1" d="M83.9,18.55h-28.97c-.66,0-1.2-.54-1.2-1.2s.54-1.2,1.2-1.2h28.97c.66,0,1.2,.54,1.2,1.2s-.54,1.2-1.2,1.2Z"/>
  <path class="cls-1" d="M83.9,27.1h-28.97c-.66,0-1.2-.54-1.2-1.2s.54-1.2,1.2-1.2h28.97c.66,0,1.2,.54,1.2,1.2s-.54,1.2-1.2,1.2Z"/>
  <path class="cls-1" d="M83.9,35.65h-28.97c-.66,0-1.2-.54-1.2-1.2s.54-1.2,1.2-1.2h28.97c.66,0,1.2,.54,1.2,1.2s-.54,1.2-1.2,1.2Z"/>
  <path class="cls-1" d="M42.93,11.48l-7.56-4.97v3.76H14.16c-2.14,0-3.88,1.74-3.88,3.88v22.41c0,.66,.54,1.2,1.2,1.2s1.2-.54,1.2-1.2V14.16c0-.81,.66-1.48,1.48-1.48h21.2v3.76l7.56-4.97Z"/>
  <path class="cls-1" d="M79.84,53.54c-.66,0-1.2,.54-1.2,1.2v22.41c0,.81-.66,1.48-1.48,1.48h-20.91v-3.76l-7.56,4.97,7.56,4.97v-3.76h20.91c2.14,0,3.88-1.74,3.88-3.88v-22.41c0-.66-.54-1.2-1.2-1.2Z"/>
  <path class="cls-1" d="M39.95,91.32H3.88c-2.14,0-3.88-1.74-3.88-3.88V51.38c0-2.14,1.74-3.88,3.88-3.88H39.95c2.14,0,3.88,1.74,3.88,3.88v36.07c0,2.14-1.74,3.88-3.88,3.88ZM3.88,49.9c-.81,0-1.48,.66-1.48,1.48v36.07c0,.81,.66,1.48,1.48,1.48H39.95c.81,0,1.48-.66,1.48-1.48V51.38c0-.81-.66-1.48-1.48-1.48H3.88Z"/>
  <path class="cls-1" d="M87.44,43.83H51.38c-2.14,0-3.88-1.74-3.88-3.88V3.88c0-2.14,1.74-3.88,3.88-3.88h36.07c2.14,0,3.88,1.74,3.88,3.88V39.95c0,2.14-1.74,3.88-3.88,3.88ZM51.38,2.4c-.81,0-1.48,.66-1.48,1.48V39.95c0,.81,.66,1.48,1.48,1.48h36.07c.81,0,1.48-.66,1.48-1.48V3.88c0-.81-.66-1.48-1.48-1.48H51.38Z"/>
</svg>