<?xml version="1.0" encoding="UTF-8"?>
<svg id="Camada_1" data-name="Camada 1" xmlns="http://www.w3.org/2000/svg" viewBox="0 0 98.97 102.95">
  <defs>
    <style>
      .cls-1 {
        fill: #f9ffb5;
      }

      .cls-2 {
        fill: #343434;
      }
    </style>
  </defs>
  <path class="cls-2" d="M52.47,3.88c0-.81-.66-1.48-1.48-1.48H3.88c-.81,0-1.48,.66-1.48,1.48V25.28H52.47V3.88Z"/>
  <path class="cls-1" d="M48.6,8.6H6.28c-.66,0-1.2-.54-1.2-1.2s.54-1.2,1.2-1.2H48.6c.66,0,1.2,.54,1.2,1.2s-.54,1.2-1.2,1.2Z"/>
  <path class="cls-1" d="M48.6,15.56H6.28c-.66,0-1.2-.54-1.2-1.2s.54-1.2,1.2-1.2H48.6c.66,0,1.2,.54,1.2,1.2s-.54,1.2-1.2,1.2Z"/>
  <path class="cls-1" d="M48.6,22.53H6.28c-.66,0-1.2-.54-1.2-1.2s.54-1.2,1.2-1.2H48.6c.66,0,1.2,.54,1.2,1.2s-.54,1.2-1.2,1.2Z"/>
  <path class="cls-2" d="M2.4,77.67v21.4c0,.81,.66,1.48,1.48,1.48H50.99c.81,0,1.48-.66,1.48-1.48v-21.4h0s-50.07,0-50.07,0h0Z"/>
  <path class="cls-1" d="M48.6,82.39H6.28c-.66,0-1.2-.54-1.2-1.2s.54-1.2,1.2-1.2H48.6c.66,0,1.2,.54,1.2,1.2s-.54,1.2-1.2,1.2Z"/>
  <path class="cls-1" d="M48.6,89.36H6.28c-.66,0-1.2-.54-1.2-1.2s.54-1.2,1.2-1.2H48.6c.66,0,1.2,.54,1.2,1.2s-.54,1.2-1.2,1.2Z"/>
  <path class="cls-1" d="M48.6,96.32H6.28c-.66,0-1.2-.54-1.2-1.2s.54-1.2,1.2-1.2H48.6c.66,0,1.2,.54,1.2,1.2s-.54,1.2-1.2,1.2Z"/>
  <path class="cls-1" d="M45.3,62.98c-.66,0-1.2-.54-1.2-1.2v-21.4c0-.66,.54-1.2,1.2-1.2s1.2,.54,1.2,1.2v21.4c0,.66-.54,1.2-1.2,1.2Z"/>
  <path class="cls-1" d="M97.77,62.98c-.66,0-1.2-.54-1.2-1.2v-21.4c0-.66,.54-1.2,1.2-1.2s1.2,.54,1.2,1.2v21.4c0,.66-.54,1.2-1.2,1.2Z"/>
  <path class="cls-1" d="M92.69,45.1H50.37c-.66,0-1.2-.54-1.2-1.2s.54-1.2,1.2-1.2h42.32c.66,0,1.2,.54,1.2,1.2s-.54,1.2-1.2,1.2Z"/>
  <path class="cls-1" d="M92.69,52.06H50.37c-.66,0-1.2-.54-1.2-1.2s.54-1.2,1.2-1.2h42.32c.66,0,1.2,.54,1.2,1.2s-.54,1.2-1.2,1.2Z"/>
  <path class="cls-1" d="M92.69,59.03H50.37c-.66,0-1.2-.54-1.2-1.2s.54-1.2,1.2-1.2h42.32c.66,0,1.2,.54,1.2,1.2s-.54,1.2-1.2,1.2Z"/>
  <path class="cls-1" d="M37.03,49.66h-14.71v-2.84l-6.16,4.05,6.16,4.05v-2.84h14.71c.66,0,1.2-.54,1.2-1.2s-.54-1.2-1.2-1.2Z"/>
  <path class="cls-1" d="M53.67,26.49c-.66,0-1.2-.54-1.2-1.2V3.88c0-.81-.66-1.48-1.48-1.48H3.88c-.81,0-1.48,.66-1.48,1.48V25.28c0,.66-.54,1.2-1.2,1.2s-1.2-.54-1.2-1.2V3.88C0,1.74,1.74,0,3.88,0H50.99c2.14,0,3.88,1.74,3.88,3.88V25.28c0,.66-.54,1.2-1.2,1.2Z"/>
  <path class="cls-1" d="M50.99,102.95H3.88c-2.14,0-3.88-1.74-3.88-3.88v-21.4c0-.66,.54-1.2,1.2-1.2s1.2,.54,1.2,1.2v21.4c0,.81,.66,1.48,1.48,1.48H50.99c.81,0,1.48-.66,1.48-1.48v-21.4c0-.66,.54-1.2,1.2-1.2s1.2,.54,1.2,1.2v21.4c0,2.14-1.74,3.88-3.88,3.88Z"/>
</svg>