<?xml version="1.0" encoding="UTF-8"?>
<svg id="Camada_1" data-name="Camada 1" xmlns="http://www.w3.org/2000/svg" viewBox="0 0 94.24 94.41">
  <defs>
    <style>
      .cls-1 {
        fill: #b5fbb9;
      }

      .cls-2 {
        fill: #343434;
      }
    </style>
  </defs>
  <rect class="cls-2" x="2.4" y="2.4" width="29.75" height="29.75" rx="1.48" ry="1.48"/>
  <path class="cls-1" d="M28.52,10.19H6.03c-.66,0-1.2-.54-1.2-1.2s.54-1.2,1.2-1.2H28.52c.66,0,1.2,.54,1.2,1.2s-.54,1.2-1.2,1.2Z"/>
  <path class="cls-1" d="M28.52,18.48H6.03c-.66,0-1.2-.54-1.2-1.2s.54-1.2,1.2-1.2H28.52c.66,0,1.2,.54,1.2,1.2s-.54,1.2-1.2,1.2Z"/>
  <path class="cls-1" d="M28.52,26.77H6.03c-.66,0-1.2-.54-1.2-1.2s.54-1.2,1.2-1.2H28.52c.66,0,1.2,.54,1.2,1.2s-.54,1.2-1.2,1.2Z"/>
  <rect class="cls-2" x="2.4" y="62.26" width="29.75" height="29.75" rx="1.48" ry="1.48"/>
  <path class="cls-1" d="M28.52,70.05H6.03c-.66,0-1.2-.54-1.2-1.2s.54-1.2,1.2-1.2H28.52c.66,0,1.2,.54,1.2,1.2s-.54,1.2-1.2,1.2Z"/>
  <path class="cls-1" d="M28.52,78.34H6.03c-.66,0-1.2-.54-1.2-1.2s.54-1.2,1.2-1.2H28.52c.66,0,1.2,.54,1.2,1.2s-.54,1.2-1.2,1.2Z"/>
  <path class="cls-1" d="M28.52,86.63H6.03c-.66,0-1.2-.54-1.2-1.2s.54-1.2,1.2-1.2H28.52c.66,0,1.2,.54,1.2,1.2s-.54,1.2-1.2,1.2Z"/>
  <rect class="cls-2" x="62.09" y="2.4" width="29.75" height="29.75" rx="1.48" ry="1.48"/>
  <path class="cls-1" d="M88.21,10.19h-22.49c-.66,0-1.2-.54-1.2-1.2s.54-1.2,1.2-1.2h22.49c.66,0,1.2,.54,1.2,1.2s-.54,1.2-1.2,1.2Z"/>
  <path class="cls-1" d="M88.21,18.48h-22.49c-.66,0-1.2-.54-1.2-1.2s.54-1.2,1.2-1.2h22.49c.66,0,1.2,.54,1.2,1.2s-.54,1.2-1.2,1.2Z"/>
  <path class="cls-1" d="M88.21,26.77h-22.49c-.66,0-1.2-.54-1.2-1.2s.54-1.2,1.2-1.2h22.49c.66,0,1.2,.54,1.2,1.2s-.54,1.2-1.2,1.2Z"/>
  <rect class="cls-2" x="62.09" y="62.26" width="29.75" height="29.75" rx="1.48" ry="1.48"/>
  <path class="cls-1" d="M88.21,70.05h-22.49c-.66,0-1.2-.54-1.2-1.2s.54-1.2,1.2-1.2h22.49c.66,0,1.2,.54,1.2,1.2s-.54,1.2-1.2,1.2Z"/>
  <path class="cls-1" d="M88.21,78.34h-22.49c-.66,0-1.2-.54-1.2-1.2s.54-1.2,1.2-1.2h22.49c.66,0,1.2,.54,1.2,1.2s-.54,1.2-1.2,1.2Z"/>
  <path class="cls-1" d="M88.21,86.63h-22.49c-.66,0-1.2-.54-1.2-1.2s.54-1.2,1.2-1.2h22.49c.66,0,1.2,.54,1.2,1.2s-.54,1.2-1.2,1.2Z"/>
  <path class="cls-1" d="M59.69,60.43l-1.49-7.22-1.99,1.99-7.17-7.17,7.15-7.15,2.01,2.01,1.49-7.22-7.22,1.49,2.02,2.02-7.15,7.15-9.84-9.84c-.47-.47-1.23-.47-1.7,0-.47,.47-.47,1.23,0,1.7l9.84,9.84-9.84,9.84c-.47,.47-.47,1.23,0,1.7,.24,.23,.54,.35,.85,.35s.62-.12,.85-.35l9.84-9.84,7.17,7.17-2.03,2.03,7.22,1.49Z"/>
  <path class="cls-1" d="M30.67,34.55H3.88c-2.14,0-3.88-1.74-3.88-3.88V3.88C0,1.74,1.74,0,3.88,0H30.67c2.14,0,3.88,1.74,3.88,3.88V30.67c0,2.14-1.74,3.88-3.88,3.88ZM3.88,2.4c-.81,0-1.48,.66-1.48,1.48V30.67c0,.81,.66,1.48,1.48,1.48H30.67c.81,0,1.48-.66,1.48-1.48V3.88c0-.81-.66-1.48-1.48-1.48H3.88Z"/>
  <path class="cls-1" d="M30.67,94.41H3.88c-2.14,0-3.88-1.74-3.88-3.88v-26.79c0-2.14,1.74-3.88,3.88-3.88H30.67c2.14,0,3.88,1.74,3.88,3.88v26.79c0,2.14-1.74,3.88-3.88,3.88ZM3.88,62.26c-.81,0-1.48,.66-1.48,1.48v26.79c0,.81,.66,1.48,1.48,1.48H30.67c.81,0,1.48-.66,1.48-1.48v-26.79c0-.81-.66-1.48-1.48-1.48H3.88Z"/>
  <path class="cls-1" d="M90.36,34.55h-26.79c-2.14,0-3.88-1.74-3.88-3.88V3.88c0-2.14,1.74-3.88,3.88-3.88h26.79c2.14,0,3.88,1.74,3.88,3.88V30.67c0,2.14-1.74,3.88-3.88,3.88ZM63.57,2.4c-.81,0-1.48,.66-1.48,1.48V30.67c0,.81,.66,1.48,1.48,1.48h26.79c.81,0,1.48-.66,1.48-1.48V3.88c0-.81-.66-1.48-1.48-1.48h-26.79Z"/>
  <path class="cls-1" d="M90.36,94.41h-26.79c-2.14,0-3.88-1.74-3.88-3.88v-26.79c0-2.14,1.74-3.88,3.88-3.88h26.79c2.14,0,3.88,1.74,3.88,3.88v26.79c0,2.14-1.74,3.88-3.88,3.88Zm-26.79-32.15c-.81,0-1.48,.66-1.48,1.48v26.79c0,.81,.66,1.48,1.48,1.48h26.79c.81,0,1.48-.66,1.48-1.48v-26.79c0-.81-.66-1.48-1.48-1.48h-26.79Z"/>
</svg>