<?xml version="1.0" encoding="UTF-8"?>
<svg id="Camada_1" data-name="Camada 1" xmlns="http://www.w3.org/2000/svg" viewBox="0 0 102.57 96.73">
  <defs>
    <style>
      .cls-1 {
        fill: #b5f2ff;
      }

      .cls-2 {
        fill: #343434;
      }
    </style>
  </defs>
  <path class="cls-1" d="M49.6,96.73c-.48,0-.92-.1-1.34-.31s-.77-.49-1.06-.87l-5.56-7.06,.48-.51c.34-.36,.75-.57,1.22-.64s.92,.03,1.33,.28l1.89,1.15v-8.36c0-.29,.1-.53,.29-.73s.44-.29,.73-.29,.54,.1,.74,.29,.31,.44,.31,.73v12.03l-2.47-1.53,2.65,3.39c.1,.12,.22,.21,.36,.28s.28,.1,.43,.1h5.63c.56,0,1.04-.2,1.44-.6s.6-.88,.6-1.44v-4.08c0-.29-.1-.53-.29-.73s-.44-.29-.73-.29h-5.58v-2.04h5.58c.85,0,1.57,.3,2.17,.89s.89,1.32,.89,2.17v4.08c0,1.12-.4,2.08-1.2,2.88-.8,.8-1.76,1.2-2.88,1.2h-5.63Zm-6.42-13.76c-.22-.37-.39-.78-.51-1.21s-.18-.88-.18-1.34c0-1.41,.5-2.61,1.49-3.61,.99-.99,2.2-1.49,3.61-1.49s2.61,.5,3.61,1.49c.99,.99,1.49,2.2,1.49,3.61,0,.46-.06,.9-.18,1.34s-.29,.84-.51,1.21l-1.76-1.02c.14-.24,.24-.48,.31-.73s.1-.51,.1-.8c0-.85-.3-1.57-.89-2.17-.59-.59-1.32-.89-2.17-.89s-1.57,.3-2.17,.89c-.59,.59-.89,1.32-.89,2.17,0,.29,.03,.56,.1,.8,.07,.25,.17,.49,.31,.73l-1.76,1.02Z"/>
  <rect class="cls-2" x="2.4" y="54.65" width="25.26" height="25.26" rx="1.48" ry="1.48"/>
  <path class="cls-1" d="M24.71,61.35H5.36c-.66,0-1.2-.54-1.2-1.2s.54-1.2,1.2-1.2H24.71c.66,0,1.2,.54,1.2,1.2s-.54,1.2-1.2,1.2Z"/>
  <path class="cls-1" d="M24.71,68.48H5.36c-.66,0-1.2-.54-1.2-1.2s.54-1.2,1.2-1.2H24.71c.66,0,1.2,.54,1.2,1.2s-.54,1.2-1.2,1.2Z"/>
  <path class="cls-1" d="M24.71,75.62H5.36c-.66,0-1.2-.54-1.2-1.2s.54-1.2,1.2-1.2H24.71c.66,0,1.2,.54,1.2,1.2s-.54,1.2-1.2,1.2Z"/>
  <rect class="cls-2" x="38.66" y="44.32" width="25.26" height="25.26" rx="1.48" ry="1.48"/>
  <path class="cls-1" d="M60.96,51.02h-19.35c-.66,0-1.2-.54-1.2-1.2s.54-1.2,1.2-1.2h19.35c.66,0,1.2,.54,1.2,1.2s-.54,1.2-1.2,1.2Z"/>
  <path class="cls-1" d="M60.96,58.15h-19.35c-.66,0-1.2-.54-1.2-1.2s.54-1.2,1.2-1.2h19.35c.66,0,1.2,.54,1.2,1.2s-.54,1.2-1.2,1.2Z"/>
  <path class="cls-1" d="M60.96,65.29h-19.35c-.66,0-1.2-.54-1.2-1.2s.54-1.2,1.2-1.2h19.35c.66,0,1.2,.54,1.2,1.2s-.54,1.2-1.2,1.2Z"/>
  <rect class="cls-2" x="74.91" y="54.65" width="25.26" height="25.26" rx="1.48" ry="1.48"/>
  <path class="cls-1" d="M97.21,61.35h-19.35c-.66,0-1.2-.54-1.2-1.2s.54-1.2,1.2-1.2h19.35c.66,0,1.2,.54,1.2,1.2s-.54,1.2-1.2,1.2Z"/>
  <path class="cls-1" d="M97.21,68.48h-19.35c-.66,0-1.2-.54-1.2-1.2s.54-1.2,1.2-1.2h19.35c.66,0,1.2,.54,1.2,1.2s-.54,1.2-1.2,1.2Z"/>
  <path class="cls-1" d="M97.21,75.62h-19.35c-.66,0-1.2-.54-1.2-1.2s.54-1.2,1.2-1.2h19.35c.66,0,1.2,.54,1.2,1.2s-.54,1.2-1.2,1.2Z"/>
  <rect class="cls-2" x="2.4" y="2.4" width="97.76" height="31.54" rx="1.48" ry="1.48"/>
  <path class="cls-1" d="M96.3,8.6H6.28c-.66,0-1.2-.54-1.2-1.2s.54-1.2,1.2-1.2H96.3c.66,0,1.2,.54,1.2,1.2s-.54,1.2-1.2,1.2Z"/>
  <path class="cls-1" d="M96.3,15.56H6.28c-.66,0-1.2-.54-1.2-1.2s.54-1.2,1.2-1.2H96.3c.66,0,1.2,.54,1.2,1.2s-.54,1.2-1.2,1.2Z"/>
  <path class="cls-1" d="M96.3,22.53H6.28c-.66,0-1.2-.54-1.2-1.2s.54-1.2,1.2-1.2H96.3c.66,0,1.2,.54,1.2,1.2s-.54,1.2-1.2,1.2Z"/>
  <path class="cls-1" d="M96.3,29.55H6.28c-.66,0-1.2-.54-1.2-1.2s.54-1.2,1.2-1.2H96.3c.66,0,1.2,.54,1.2,1.2s-.54,1.2-1.2,1.2Z"/>
  <path class="cls-1" d="M26.19,82.32H3.88c-2.14,0-3.88-1.74-3.88-3.88v-22.31c0-2.14,1.74-3.88,3.88-3.88H26.19c2.14,0,3.88,1.74,3.88,3.88v22.31c0,2.14-1.74,3.88-3.88,3.88ZM3.88,54.65c-.81,0-1.48,.66-1.48,1.48v22.31c0,.81,.66,1.48,1.48,1.48H26.19c.81,0,1.48-.66,1.48-1.48v-22.31c0-.81-.66-1.48-1.48-1.48H3.88Z"/>
  <path class="cls-1" d="M62.44,71.99h-22.31c-2.14,0-3.88-1.74-3.88-3.88v-22.31c0-2.14,1.74-3.88,3.88-3.88h22.31c2.14,0,3.88,1.74,3.88,3.88v22.31c0,2.14-1.74,3.88-3.88,3.88Zm-22.31-27.67c-.81,0-1.48,.66-1.48,1.48v22.31c0,.81,.66,1.48,1.48,1.48h22.31c.81,0,1.48-.66,1.48-1.48v-22.31c0-.81-.66-1.48-1.48-1.48h-22.31Z"/>
  <path class="cls-1" d="M98.69,82.32h-22.31c-2.14,0-3.88-1.74-3.88-3.88v-22.31c0-2.14,1.74-3.88,3.88-3.88h22.31c2.14,0,3.88,1.74,3.88,3.88v22.31c0,2.14-1.74,3.88-3.88,3.88Zm-22.31-27.67c-.81,0-1.48,.66-1.48,1.48v22.31c0,.81,.66,1.48,1.48,1.48h22.31c.81,0,1.48-.66,1.48-1.48v-22.31c0-.81-.66-1.48-1.48-1.48h-22.31Z"/>
  <path class="cls-1" d="M98.69,36.34H3.88c-2.14,0-3.88-1.74-3.88-3.88V3.88C0,1.74,1.74,0,3.88,0H98.69c2.14,0,3.88,1.74,3.88,3.88v28.58c0,2.14-1.74,3.88-3.88,3.88ZM3.88,2.4c-.81,0-1.48,.66-1.48,1.48v28.58c0,.81,.66,1.48,1.48,1.48H98.69c.81,0,1.48-.66,1.48-1.48V3.88c0-.81-.66-1.48-1.48-1.48H3.88Z"/>
</svg>