<?xml version="1.0" encoding="UTF-8"?>
<svg id="Camada_1" data-name="Camada 1" xmlns="http://www.w3.org/2000/svg" viewBox="0 0 108.56 79.06">
  <defs>
    <style>
      .cls-1 {
        fill: #fff;
      }
    </style>
  </defs>
  <g>
    <path class="cls-1" d="M89.13,79.06H19.43c-.86,0-1.56-.7-1.56-1.56V37.74c0-.86,.7-1.56,1.56-1.56s1.56,.7,1.56,1.56v38.19H87.57V37.74c0-.86,.7-1.56,1.56-1.56s1.56,.7,1.56,1.56v39.75c0,.86-.7,1.56-1.56,1.56Z"/>
    <path class="cls-1" d="M106.99,39.18c-.3,0-.61-.09-.88-.27L54.28,3.46,2.44,38.91c-.71,.49-1.68,.31-2.17-.41-.49-.71-.3-1.68,.41-2.17L53.4,.27c.53-.36,1.23-.36,1.76,0l52.72,36.06c.71,.49,.9,1.46,.41,2.17-.3,.44-.79,.68-1.29,.68Z"/>
  </g>
  <g>
    <path class="cls-1" d="M78.65,49.6H29.91c-.86,0-1.56-.7-1.56-1.56s.7-1.56,1.56-1.56h48.73c.86,0,1.56,.7,1.56,1.56s-.7,1.56-1.56,1.56Z"/>
    <path class="cls-1" d="M78.65,39.3H29.91c-.86,0-1.56-.7-1.56-1.56s.7-1.56,1.56-1.56h48.73c.86,0,1.56,.7,1.56,1.56s-.7,1.56-1.56,1.56Z"/>
    <path class="cls-1" d="M78.65,59.18H29.91c-.86,0-1.56-.7-1.56-1.56s.7-1.56,1.56-1.56h48.73c.86,0,1.56,.7,1.56,1.56s-.7,1.56-1.56,1.56Z"/>
    <path class="cls-1" d="M78.65,68.76H29.91c-.86,0-1.56-.7-1.56-1.56s.7-1.56,1.56-1.56h48.73c.86,0,1.56,.7,1.56,1.56s-.7,1.56-1.56,1.56Z"/>
  </g>
</svg>